<?xml version="1.0" encoding="UTF-8"?>
<!--    001826-->
<svg xmlns="http://www.w3.org/2000/svg" viewBox="0 0 124.06 51.7">
    <g id="Layer_2" data-name="Layer 2">
        <g id="DEVICES">
            <path
                d="M2.61,51.57H.16A.15.15,0,0,1,0,51.41V40.51a.15.15,0,0,1,.16-.16H2.47a2.69,2.69,0,0,1,2.95,2.94,2.48,2.48,0,0,1-1.33,2.45s0,0,0,.06a2.91,2.91,0,0,1,1.41,2.73A2.72,2.72,0,0,1,2.61,51.57ZM1.14,41.41v3.86a.07.07,0,0,0,.06.07H2.47a1.73,1.73,0,0,0,1.82-2c0-1.28-.67-2-1.82-2H1.2A.06.06,0,0,0,1.14,41.41Zm3.2,7c0-1.38-.67-2.2-1.81-2.2H1.2a.07.07,0,0,0-.06.07V50.5a.06.06,0,0,0,.06.06H2.53C3.67,50.56,4.34,49.78,4.34,48.4Z"
                style="fill:#8c978e"/>
            <path
                d="M8.53,48.89V43a2.63,2.63,0,0,1,2.75-2.8A2.65,2.65,0,0,1,14.07,43v5.86a2.66,2.66,0,0,1-2.79,2.81A2.64,2.64,0,0,1,8.53,48.89Zm4.4.07V43a1.64,1.64,0,1,0-3.27,0v6a1.64,1.64,0,1,0,3.27,0Z"
                style="fill:#8c978e"/>
            <path
                d="M20.32,51.57H17.87a.15.15,0,0,1-.16-.16V40.51a.15.15,0,0,1,.16-.16h2.3a2.69,2.69,0,0,1,2.95,2.94,2.48,2.48,0,0,1-1.33,2.45s0,0,0,.06a2.93,2.93,0,0,1,1.41,2.73A2.72,2.72,0,0,1,20.32,51.57ZM18.84,41.41v3.86a.08.08,0,0,0,.07.07h1.26a1.73,1.73,0,0,0,1.83-2c0-1.28-.67-2-1.83-2H18.91S18.84,41.38,18.84,41.41Zm3.21,7c0-1.38-.67-2.2-1.81-2.2H18.91a.08.08,0,0,0-.07.07V50.5s0,.06.07.06h1.33C21.38,50.56,22.05,49.78,22.05,48.4Z"
                style="fill:#8c978e"/>
            <path
                d="M27.26,40.53l-1,3a.21.21,0,0,1-.19.13h-.59c-.11,0-.16-.07-.13-.18l.72-3a.17.17,0,0,1,.18-.15h.83C27.24,40.35,27.29,40.42,27.26,40.53Z"
                style="fill:#8c978e"/>
            <path
                d="M29.74,48.86v-.38a.15.15,0,0,1,.16-.16h.8a.15.15,0,0,1,.16.16v.33c0,1.16.64,1.9,1.54,1.9A1.64,1.64,0,0,0,34,48.89c0-1.13-.74-1.63-1.92-2.53s-2.32-1.73-2.32-3.43a2.49,2.49,0,0,1,2.59-2.7A2.63,2.63,0,0,1,35,43.13v.4a.16.16,0,0,1-.16.16H34a.15.15,0,0,1-.16-.16v-.42c0-1.14-.63-1.89-1.56-1.89s-1.47.61-1.47,1.75.53,1.5,1.82,2.46c1.62,1.21,2.42,1.85,2.42,3.37a2.65,2.65,0,0,1-2.69,2.9A2.62,2.62,0,0,1,29.74,48.86Z"
                style="fill:#8c978e"/>
            <path
                d="M43,48.93V43a2.74,2.74,0,1,1,5.47,0v.27a.15.15,0,0,1-.16.16l-.84.05a.15.15,0,0,1-.16-.16v-.4a1.59,1.59,0,1,0-3.17,0V49a1.59,1.59,0,1,0,3.17,0v-.4a.16.16,0,0,1,.16-.16l.84,0a.15.15,0,0,1,.16.16v.26a2.74,2.74,0,1,1-5.47,0Z"
                style="fill:#8c978e"/>
            <path
                d="M51.79,48.89V43a2.78,2.78,0,1,1,5.55,0v5.86a2.78,2.78,0,1,1-5.55,0ZM56.2,49V43a1.63,1.63,0,0,0-1.65-1.76A1.62,1.62,0,0,0,52.93,43v6a1.62,1.62,0,0,0,1.62,1.75A1.63,1.63,0,0,0,56.2,49Z"
                style="fill:#8c978e"/>
            <path
                d="M61,51.41V40.51a.16.16,0,0,1,.16-.16H62a.18.18,0,0,1,.18.13l3.22,8.08c0,.06.08.06.08,0V40.51a.15.15,0,0,1,.16-.16h.8a.15.15,0,0,1,.16.16v10.9a.15.15,0,0,1-.16.16h-.85a.16.16,0,0,1-.17-.13l-3.23-8.07c0-.07-.08,0-.08,0l0,8a.15.15,0,0,1-.16.16h-.82A.15.15,0,0,1,61,51.41Z"
                style="fill:#8c978e"/>
            <path
                d="M75.56,40.51v.68a.16.16,0,0,1-.16.16H73.28a.06.06,0,0,0-.06.06v10a.15.15,0,0,1-.16.16h-.82a.15.15,0,0,1-.16-.16v-10a.07.07,0,0,0-.07-.06H70a.15.15,0,0,1-.16-.16v-.68a.15.15,0,0,1,.16-.16H75.4A.16.16,0,0,1,75.56,40.51Z"
                style="fill:#8c978e"/>
            <path
                d="M82.73,51.43l-.4-2s0-.06-.08-.06h-2.9s-.08,0-.08.06l-.41,2a.17.17,0,0,1-.18.14h-.82a.14.14,0,0,1-.14-.18L80.14,40.5a.16.16,0,0,1,.18-.15h1a.16.16,0,0,1,.17.15l2.44,10.89c0,.1,0,.18-.15.18h-.83A.17.17,0,0,1,82.73,51.43Zm-3.18-3h2.51s0,0,0-.07l-1.27-6.17c0-.06,0-.06-.06,0L79.5,48.38S79.51,48.45,79.55,48.45Z"
                style="fill:#8c978e"/>
            <path
                d="M87.21,51.41V40.51a.15.15,0,0,1,.16-.16h.81a.15.15,0,0,1,.16.16v10.9a.15.15,0,0,1-.16.16h-.81A.15.15,0,0,1,87.21,51.41Z"
                style="fill:#8c978e"/>
            <path
                d="M92.25,51.41V40.51a.16.16,0,0,1,.16-.16h.85a.18.18,0,0,1,.18.13l3.22,8.08c0,.06.08.06.08,0V40.51a.15.15,0,0,1,.16-.16h.8a.15.15,0,0,1,.16.16v10.9a.15.15,0,0,1-.16.16h-.85a.16.16,0,0,1-.17-.13l-3.23-8.07c0-.07-.08,0-.08,0l0,8a.15.15,0,0,1-.16.16h-.82A.15.15,0,0,1,92.25,51.41Z"
                style="fill:#8c978e"/>
            <path
                d="M106.68,41.35H103s-.07,0-.07.06v4s0,.06.07.06h2.34a.15.15,0,0,1,.16.16v.69a.16.16,0,0,1-.16.16H103s-.07,0-.07.06v4a.08.08,0,0,0,.07.07h3.72a.15.15,0,0,1,.16.16v.67a.15.15,0,0,1-.16.16h-4.76a.15.15,0,0,1-.16-.16V40.51a.15.15,0,0,1,.16-.16h4.76a.16.16,0,0,1,.16.16v.68A.16.16,0,0,1,106.68,41.35Z"
                style="fill:#8c978e"/>
            <path
                d="M114.53,51.44l-1.65-5c0-.05,0-.05-.07-.05h-1.38a.07.07,0,0,0-.06.07v4.93a.15.15,0,0,1-.16.16h-.82a.15.15,0,0,1-.16-.16V40.5a.15.15,0,0,1,.16-.16H113c1.55,0,2.61,1.23,2.61,3.07A2.84,2.84,0,0,1,114,46.27s-.06,0,0,.08l1.75,5c0,.12,0,.18-.13.18h-.83A.21.21,0,0,1,114.53,51.44Zm-3.16-10v4a.07.07,0,0,0,.06.07h1.45c1,0,1.63-.82,1.63-2.07s-.66-2.1-1.63-2.1h-1.45A.07.07,0,0,0,111.37,41.4Z"
                style="fill:#8c978e"/>
            <path
                d="M118.71,48.86v-.38a.15.15,0,0,1,.16-.16h.8a.15.15,0,0,1,.16.16v.33c0,1.16.64,1.9,1.54,1.9a1.64,1.64,0,0,0,1.57-1.82c0-1.13-.74-1.63-1.92-2.53s-2.33-1.73-2.33-3.43a2.49,2.49,0,0,1,2.6-2.7,2.63,2.63,0,0,1,2.68,2.9v.4a.16.16,0,0,1-.16.16H123a.16.16,0,0,1-.16-.16v-.42c0-1.14-.62-1.89-1.55-1.89s-1.47.61-1.47,1.75.52,1.5,1.82,2.46c1.62,1.21,2.42,1.85,2.42,3.37a2.65,2.65,0,0,1-2.69,2.9A2.62,2.62,0,0,1,118.71,48.86Z"
                style="fill:#8c978e"/>
            <path d="M74.48,20.44V10.19L63.61,8.38V19.67Zm-1-1-4-.28V10.33l4,.67Zm-9-9.92,4,.67v8.9l-4-.28Z"
                  style="fill:#8c978e"/>
            <path
                d="M36.91,15V27.24H55V0L36.91,4.19Zm17.15-1.06v12.4H37.86V15.8l8.1-1ZM37.86,5,54.06,1.2V12.94l-8.1,1-8.1.95Z"
                style="fill:#8c978e"/>
            <polygon
                points="77.99 27.24 77.99 11.74 86.2 13.11 86.2 27.24 87.15 27.24 87.15 25.02 87.15 12.3 77.04 10.62 77.04 26.29 59.43 26.29 59.43 1.68 87.15 8.03 87.15 7.05 58.48 0.48 58.48 27.24 72.09 27.24 77.99 27.24"
                style="fill:#8c978e"/>
        </g>
    </g>
</svg>
